<svg xmlns="http://www.w3.org/2000/svg" width="1000" height="390" viewBox="0 0 1000 390" role="img"><title>VERA — DISCOVER → CONSTRUCT → EXECUTE &amp; VERIFY</title><rect width="1000" height="390" rx="20" fill="#f8fafc"/><g font-family="Arial,PingFang SC,Microsoft YaHei,sans-serif"><text x="38" y="48" font-size="21" font-weight="700" fill="#112333">VERA</text><text x="962" y="46" text-anchor="end" font-size="11" letter-spacing="1" fill="#526879">CONCEPTUAL METHOD OVERVIEW</text><rect x="38" y="101" width="276" height="172" rx="14" fill="#e7f2fc"/><text x="58" y="134" font-size="12" fill="#496275">01</text><text x="58" y="184" font-size="21" font-weight="700" fill="#112333">Risk discovery</text><text x="58" y="220" font-size="15" fill="#496275">Literature-driven taxonomy</text><path d="M324 185h27m-8-6 8 6-8 6" fill="none" stroke="#1697e2" stroke-width="3"/><rect x="362" y="101" width="276" height="172" rx="14" fill="#dceffc"/><text x="382" y="134" font-size="12" fill="#496275">02</text><text x="382" y="184" font-size="21" font-weight="700" fill="#112333">Executable tests</text><text x="382" y="220" font-size="15" fill="#496275">Goals, state &amp; verifiers</text><path d="M648 185h27m-8-6 8 6-8 6" fill="none" stroke="#1697e2" stroke-width="3"/><rect x="686" y="101" width="276" height="172" rx="14" fill="#fddeb1"/><text x="706" y="134" font-size="12" fill="#496275">03</text><text x="706" y="184" font-size="21" font-weight="700" fill="#112333">Evidence verification</text><text x="706" y="220" font-size="15" fill="#496275">Actions → observable state</text><text x="38" y="349" font-size="13" fill="#496275">DISCOVER → CONSTRUCT → EXECUTE &amp; VERIFY</text></g></svg>